<svg width="49" height="48" viewBox="0 0 49 48" fill="none" xmlns="http://www.w3.org/2000/svg">
<rect x="0.5" width="48" height="48" rx="6" fill="white" fill-opacity="0.1"/>
<path fill-rule="evenodd" clip-rule="evenodd" d="M10.9183 9.10812L14.0748 36.021C14.0805 36.0693 14.0833 36.1179 14.0833 36.1666C14.0833 36.249 14.0955 36.298 14.1039 36.3227C14.1121 36.3466 14.1206 36.3588 14.1269 36.3664C14.1379 36.3796 14.1819 36.4236 14.3031 36.4539L14.3355 36.4625L24.5022 39.2958C24.5296 39.3034 24.5566 39.312 24.5833 39.3214C24.61 39.312 24.6371 39.3034 24.6644 39.2958L34.7028 36.4982C34.8774 36.4005 34.9838 36.3085 35.0397 36.2414C35.0695 36.2056 35.079 36.1842 35.0813 36.1783C35.0828 36.1745 35.0833 36.1731 35.0833 36.1666C35.0833 36.1205 35.0858 36.0744 35.0909 36.0285L38.0909 9.02855C38.0934 9.00598 38.0966 8.98348 38.1003 8.96109C38.1145 8.87591 38.0936 8.80248 38.0255 8.72985C37.9488 8.64801 37.8203 8.58325 37.6666 8.58325H11.3333C11.2054 8.58325 11.1278 8.62707 11.0657 8.69805C10.9987 8.77463 10.9299 8.91233 10.9183 9.10812ZM24.4308 39.3863C24.4307 39.3863 24.4318 39.3858 24.4341 39.3851L24.4308 39.3863ZM8.41663 9.16659C8.41663 7.63824 9.49137 6.08325 11.3333 6.08325H37.6666C39.2955 6.08325 40.8596 7.46616 40.5724 9.33409L37.5821 36.2463C37.5431 37.5826 36.5253 38.3848 35.7256 38.7846C35.6541 38.8204 35.5793 38.8492 35.5022 38.8707L25.4326 41.677C25.1556 41.7974 24.8444 41.8749 24.5208 41.8749C24.2584 41.8749 23.934 41.821 23.6288 41.6477L13.6785 38.8746C13.1394 38.7364 12.6075 38.4482 12.2063 37.9668C11.8094 37.4905 11.6005 36.8962 11.5843 36.2483L8.42514 9.31219C8.41947 9.26386 8.41663 9.21525 8.41663 9.16659Z" fill="white"/>
<path fill-rule="evenodd" clip-rule="evenodd" d="M22.1666 14.4165C22.857 14.4165 23.4166 14.9761 23.4166 15.6665V30.6665C23.4166 31.0597 23.2316 31.4299 22.9172 31.666C22.6029 31.9021 22.1957 31.9766 21.8181 31.8669L16.6514 30.3669C15.9885 30.1745 15.607 29.481 15.7995 28.818C15.992 28.155 16.6855 27.7736 17.3485 27.9661L20.9166 29.002V15.6665C20.9166 14.9761 21.4763 14.4165 22.1666 14.4165Z" fill="white"/>
<path fill-rule="evenodd" clip-rule="evenodd" d="M33.2397 15.5067C33.328 16.1914 32.8446 16.818 32.1599 16.9064L28.0833 17.4324V23.1989L31.8009 22.5993C32.1625 22.5409 32.5315 22.6442 32.8104 22.8817C33.0893 23.1191 33.2499 23.467 33.2499 23.8333V29.1666C33.2499 29.7402 32.8596 30.2402 32.3031 30.3793L26.3031 31.8793C25.6334 32.0468 24.9547 31.6396 24.7873 30.9698C24.6198 30.3001 25.027 29.6214 25.6968 29.454L30.7499 28.1907V25.3011L27.0323 25.9007C26.6707 25.959 26.3017 25.8558 26.0228 25.6183C25.7439 25.3808 25.5833 25.0329 25.5833 24.6666V16.3333C25.5833 15.7048 26.05 15.174 26.6733 15.0936L31.84 14.4269C32.5246 14.3386 33.1513 14.822 33.2397 15.5067Z" fill="white"/>
</svg>
